<svg viewBox="0 0 32 32" fill="none" xmlns="http://www.w3.org/2000/svg">
    <path
      d="M29.3334 11.9086C29.3334 11.1008 29.3334 10.6969 29.1737 10.5099C29.0351 10.3477 28.8272 10.2615 28.6144 10.2783C28.3693 10.2976 28.0837 10.5832 27.5125 11.1543L22.6667 16.0001L27.5125 20.8458C28.0837 21.417 28.3693 21.7026 28.6144 21.7219C28.8272 21.7386 29.0351 21.6525 29.1737 21.4902C29.3334 21.3032 29.3334 20.8993 29.3334 20.0916V11.9086Z"
      stroke="#0C111D" stroke-width="2" stroke-linecap="round" stroke-linejoin="round" />
    <path
      d="M2.66675 13.0667C2.66675 10.8265 2.66675 9.70643 3.10272 8.85079C3.48622 8.09814 4.09814 7.48622 4.85079 7.10272C5.70643 6.66675 6.82654 6.66675 9.06675 6.66675H16.2667C18.507 6.66675 19.6271 6.66675 20.4827 7.10272C21.2354 7.48622 21.8473 8.09814 22.2308 8.85079C22.6667 9.70643 22.6667 10.8265 22.6667 13.0667V18.9334C22.6667 21.1736 22.6667 22.2937 22.2308 23.1494C21.8473 23.902 21.2354 24.5139 20.4827 24.8974C19.6271 25.3334 18.507 25.3334 16.2667 25.3334H9.06675C6.82654 25.3334 5.70643 25.3334 4.85079 24.8974C4.09814 24.5139 3.48622 23.902 3.10272 23.1494C2.66675 22.2937 2.66675 21.1736 2.66675 18.9334V13.0667Z"
      stroke="#0C111D" stroke-width="2" stroke-linecap="round" stroke-linejoin="round" />
  </svg>