<svg width="34" height="34" viewBox="0 0 34 34" fill="none"
xmlns="http://www.w3.org/2000/svg" class="w-8 h-8 object-cover">
<g filter="url(#filter0_d_5_31392)">
    <path
        d="M11.0002 17H11.0136M17.0002 17H17.0136M23.0002 17H23.0136M17.0002 29C23.6277 29 29.0002 23.6274 29.0002 17C29.0002 10.3726 23.6277 5 17.0002 5C10.3728 5 5.00024 10.3726 5.00024 17C5.00024 18.5962 5.31189 20.1196 5.87766 21.5127C5.98594 21.7793 6.04008 21.9126 6.06424 22.0204C6.08787 22.1258 6.09651 22.2038 6.09652 22.3118C6.09653 22.4223 6.07649 22.5426 6.03639 22.7831L5.24575 27.527C5.16295 28.0238 5.12155 28.2721 5.19859 28.4518C5.26602 28.609 5.39129 28.7342 5.54849 28.8017C5.7281 28.8787 5.97649 28.8373 6.47326 28.7545L11.2171 27.9639C11.4577 27.9238 11.578 27.9037 11.6884 27.9037C11.7964 27.9037 11.8745 27.9124 11.9799 27.936C12.0876 27.9602 12.2209 28.0143 12.4876 28.1226C13.8806 28.6884 15.4041 29 17.0002 29ZM11.6669 17C11.6669 17.3682 11.3684 17.6667 11.0002 17.6667C10.6321 17.6667 10.3336 17.3682 10.3336 17C10.3336 16.6318 10.6321 16.3333 11.0002 16.3333C11.3684 16.3333 11.6669 16.6318 11.6669 17ZM17.6669 17C17.6669 17.3682 17.3684 17.6667 17.0002 17.6667C16.6321 17.6667 16.3336 17.3682 16.3336 17C16.3336 16.6318 16.6321 16.3333 17.0002 16.3333C17.3684 16.3333 17.6669 16.6318 17.6669 17ZM23.6669 17C23.6669 17.3682 23.3684 17.6667 23.0002 17.6667C22.6321 17.6667 22.3336 17.3682 22.3336 17C22.3336 16.6318 22.6321 16.3333 23.0002 16.3333C23.3684 16.3333 23.6669 16.6318 23.6669 17Z"
        stroke="white" stroke-width="2" stroke-linecap="round"
        stroke-linejoin="round" />
</g>
<defs>
    <filter id="filter0_d_5_31392" x="-2.99976" y="-3" width="40" height="40"
        filterUnits="userSpaceOnUse" color-interpolation-filters="sRGB">
        <feFlood flood-opacity="0" result="BackgroundImageFix" />
        <feColorMatrix in="SourceAlpha" type="matrix"
            values="0 0 0 0 0 0 0 0 0 0 0 0 0 0 0 0 0 0 127 0" result="hardAlpha" />
        <feOffset />
        <feGaussianBlur stdDeviation="2" />
        <feComposite in2="hardAlpha" operator="out" />
        <feColorMatrix type="matrix"
            values="0 0 0 0 0 0 0 0 0 0 0 0 0 0 0 0 0 0 1 0" />
        <feBlend mode="normal" in2="BackgroundImageFix"
            result="effect1_dropShadow_5_31392" />
        <feBlend mode="normal" in="SourceGraphic" in2="effect1_dropShadow_5_31392"
            result="shape" />
    </filter>
</defs>
</svg>