<svg width="15" height="16" viewBox="0 0 15 16" fill="none" xmlns="http://www.w3.org/2000/svg">
<path d="M8.45593 5.71991C8.09817 5.97497 7.66035 6.125 7.1875 6.125C5.97938 6.125 5 5.14562 5 3.9375C5 2.72938 5.97938 1.75 7.1875 1.75C7.97062 1.75 8.65762 2.16151 9.04407 2.78009M3.75 13.0545H5.38143C5.59414 13.0545 5.80555 13.0798 6.01176 13.1304L7.73556 13.5493C8.10959 13.6404 8.49924 13.6493 8.87717 13.5759L10.7831 13.2051C11.2866 13.107 11.7497 12.8659 12.1127 12.5128L13.4612 11.2011C13.8463 10.8271 13.8463 10.2203 13.4612 9.84567C13.1145 9.5084 12.5655 9.47043 12.1732 9.75644L10.6016 10.903C10.3766 11.0676 10.1027 11.1561 9.82103 11.1561H8.30344L9.26942 11.1561C9.81388 11.1561 10.2549 10.7271 10.2549 10.1974V10.0057C10.2549 9.56594 9.94723 9.18248 9.5088 9.07617L8.01787 8.71359C7.77524 8.65474 7.52675 8.625 7.27696 8.625C6.67396 8.625 5.58243 9.12426 5.58243 9.12426L3.75 9.89055M12.5 4.5625C12.5 5.77062 11.5206 6.75 10.3125 6.75C9.10438 6.75 8.125 5.77062 8.125 4.5625C8.125 3.35438 9.10438 2.375 10.3125 2.375C11.5206 2.375 12.5 3.35438 12.5 4.5625ZM1.25 9.625L1.25 13.25C1.25 13.6 1.25 13.775 1.31812 13.9087C1.37804 14.0263 1.47365 14.122 1.59126 14.1819C1.72495 14.25 1.89997 14.25 2.25 14.25H2.75C3.10003 14.25 3.27505 14.25 3.40874 14.1819C3.52635 14.122 3.62196 14.0263 3.68188 13.9087C3.75 13.775 3.75 13.6 3.75 13.25V9.625C3.75 9.27497 3.75 9.09995 3.68188 8.96626C3.62196 8.84865 3.52635 8.75304 3.40874 8.69312C3.27505 8.625 3.10003 8.625 2.75 8.625L2.25 8.625C1.89997 8.625 1.72495 8.625 1.59126 8.69312C1.47365 8.75304 1.37804 8.84865 1.31812 8.96626C1.25 9.09995 1.25 9.27497 1.25 9.625Z" stroke="white" stroke-linecap="round" stroke-linejoin="round"/>
</svg>
