<svg width="38" height="38" viewBox="0 0 38 38" fill="none" xmlns="http://www.w3.org/2000/svg"
class="w-8 h-8 object-cover">
<g filter="url(#filter0_d_5_31388)">
  <path
    d="M21.0396 14.1359C20.2764 14.68 19.3424 15.0001 18.3337 15.0001C15.7563 15.0001 13.667 12.9107 13.667 10.3334C13.667 7.75609 15.7563 5.66675 18.3337 5.66675C20.0043 5.66675 21.4699 6.54464 22.2943 7.86427M11.0003 29.783H14.4807C14.9345 29.783 15.3855 29.837 15.8254 29.9449L19.5028 30.8386C20.3008 31.033 21.132 31.0519 21.9383 30.8953L26.0043 30.1042C27.0784 29.895 28.0664 29.3807 28.8408 28.6274L31.7175 25.829C32.539 25.0312 32.539 23.7367 31.7175 22.9375C30.9779 22.218 29.8066 22.137 28.9698 22.7472L25.6171 25.1932C25.137 25.5442 24.5527 25.7332 23.9519 25.7332H20.7143L22.7751 25.7331C23.9366 25.7331 24.8775 24.8179 24.8775 23.688V23.2789C24.8775 22.3407 24.2211 21.5227 23.2858 21.2959L20.1051 20.5224C19.5875 20.3969 19.0574 20.3334 18.5245 20.3334C17.2381 20.3334 14.9095 21.3985 14.9095 21.3985L11.0003 23.0333M29.667 11.6667C29.667 14.2441 27.5777 16.3334 25.0003 16.3334C22.423 16.3334 20.3337 14.2441 20.3337 11.6667C20.3337 9.08942 22.423 7.00008 25.0003 7.00008C27.5777 7.00008 29.667 9.08942 29.667 11.6667ZM5.66699 22.4667L5.66699 30.2001C5.66699 30.9468 5.66699 31.3202 5.81232 31.6054C5.94015 31.8563 6.14412 32.0603 6.395 32.1881C6.68022 32.3334 7.05359 32.3334 7.80032 32.3334H8.86699C9.61373 32.3334 9.9871 32.3334 10.2723 32.1881C10.5232 32.0603 10.7272 31.8563 10.855 31.6054C11.0003 31.3202 11.0003 30.9468 11.0003 30.2001V22.4667C11.0003 21.72 11.0003 21.3466 10.855 21.0614C10.7272 20.8105 10.5232 20.6066 10.2723 20.4787C9.9871 20.3334 9.61373 20.3334 8.86699 20.3334L7.80033 20.3334C7.05359 20.3334 6.68022 20.3334 6.39501 20.4787C6.14412 20.6066 5.94015 20.8105 5.81232 21.0614C5.66699 21.3466 5.66699 21.72 5.66699 22.4667Z"
    stroke="white" stroke-width="2" stroke-linecap="round" stroke-linejoin="round" />
</g>
<defs>
  <filter id="filter0_d_5_31388" x="-0.999756" y="-1" width="40" height="40"
    filterUnits="userSpaceOnUse" color-interpolation-filters="sRGB">
    <feFlood flood-opacity="0" result="BackgroundImageFix" />
    <feColorMatrix in="SourceAlpha" type="matrix" values="0 0 0 0 0 0 0 0 0 0 0 0 0 0 0 0 0 0 127 0"
      result="hardAlpha" />
    <feOffset />
    <feGaussianBlur stdDeviation="2" />
    <feComposite in2="hardAlpha" operator="out" />
    <feColorMatrix type="matrix" values="0 0 0 0 0 0 0 0 0 0 0 0 0 0 0 0 0 0 1 0" />
    <feBlend mode="normal" in2="BackgroundImageFix" result="effect1_dropShadow_5_31388" />
    <feBlend mode="normal" in="SourceGraphic" in2="effect1_dropShadow_5_31388" result="shape" />
  </filter>
</defs>
</svg>