<svg width="19" height="23" viewBox="0 0 19 23" fill="none" xmlns="http://www.w3.org/2000/svg">
<path d="M11.939 1.37891H6.18341C6.00393 1.37891 5.91419 1.37891 5.83496 1.40623C5.7649 1.4304 5.70108 1.46984 5.64814 1.5217C5.58826 1.58034 5.54813 1.6606 5.46786 1.82114L1.26786 10.2211C1.07618 10.6045 0.980344 10.7962 1.00337 10.952C1.02347 11.088 1.09872 11.2098 1.21143 11.2886C1.34049 11.3789 1.5548 11.3789 1.98341 11.3789L5.73438 11.379L8.18898 11.3789L5.73438 19.5624L5.18898 21.3789L17.3821 8.73421C17.7934 8.30761 17.9991 8.09431 18.0112 7.91179C18.0216 7.75336 17.9562 7.59939 17.8349 7.49694C17.6952 7.37891 17.3988 7.37891 16.8062 7.37891H9.68898L11.939 1.37891Z" fill="#FFED29" stroke="#FFED29" stroke-width="1.5" stroke-linecap="round" stroke-linejoin="round"/>
</svg>
