<svg width="16" height="17" viewBox="0 0 16 17" fill="none" xmlns="http://www.w3.org/2000/svg">
<path d="M7.99967 5.16634H4.99967C4.55765 5.16634 4.13372 4.99075 3.82116 4.67819C3.5086 4.36563 3.33301 3.9417 3.33301 3.49967C3.33301 3.05765 3.5086 2.63372 3.82116 2.32116C4.13372 2.0086 4.55765 1.83301 4.99967 1.83301C7.33301 1.83301 7.99967 5.16634 7.99967 5.16634ZM7.99967 5.16634H10.9997C11.4417 5.16634 11.8656 4.99075 12.1782 4.67819C12.4907 4.36563 12.6663 3.9417 12.6663 3.49967C12.6663 3.05765 12.4907 2.63372 12.1782 2.32116C11.8656 2.0086 11.4417 1.83301 10.9997 1.83301C8.66634 1.83301 7.99967 5.16634 7.99967 5.16634ZM7.99967 5.16634L7.99968 15.1663M1.33301 9.83301H14.6663M1.33301 7.29967L1.33301 13.033C1.33301 13.7797 1.33301 14.1531 1.47833 14.4383C1.60616 14.6892 1.81014 14.8932 2.06102 15.021C2.34624 15.1663 2.7196 15.1663 3.46634 15.1663L12.533 15.1663C13.2797 15.1663 13.6531 15.1663 13.9383 15.021C14.1892 14.8932 14.3932 14.6892 14.521 14.4383C14.6663 14.1531 14.6663 13.7797 14.6663 13.033V7.29968C14.6663 6.55294 14.6663 6.17957 14.521 5.89436C14.3932 5.64347 14.1892 5.4395 13.9383 5.31167C13.6531 5.16634 13.2797 5.16634 12.533 5.16634L3.46634 5.16634C2.7196 5.16634 2.34624 5.16634 2.06102 5.31167C1.81014 5.4395 1.60616 5.64347 1.47833 5.89435C1.33301 6.17957 1.33301 6.55294 1.33301 7.29967Z" stroke="#98A2B3" stroke-linecap="round" stroke-linejoin="round"/>
</svg>
