<svg width="28" height="29" viewBox="0 0 28 29" fill="none" xmlns="http://www.w3.org/2000/svg">
<g filter="url(#filter0_d_2060_110205)">
<path d="M14 9.5H9.5C8.83696 9.5 8.20107 9.23661 7.73223 8.76777C7.26339 8.29893 7 7.66304 7 7C7 6.33696 7.26339 5.70107 7.73223 5.23223C8.20107 4.76339 8.83696 4.5 9.5 4.5C13 4.5 14 9.5 14 9.5ZM14 9.5H18.5C19.163 9.5 19.7989 9.23661 20.2678 8.76777C20.7366 8.29893 21 7.66304 21 7C21 6.33696 20.7366 5.70107 20.2678 5.23223C19.7989 4.76339 19.163 4.5 18.5 4.5C15 4.5 14 9.5 14 9.5ZM14 9.5L14 24.5M4 16.5H24M4 12.7L4 21.3C4 22.4201 4 22.9802 4.21799 23.408C4.40973 23.7843 4.71569 24.0903 5.09202 24.282C5.51984 24.5 6.07989 24.5 7.2 24.5L20.8 24.5C21.9201 24.5 22.4802 24.5 22.908 24.282C23.2843 24.0903 23.5903 23.7843 23.782 23.408C24 22.9802 24 22.4201 24 21.3V12.7C24 11.5799 24 11.0198 23.782 10.592C23.5903 10.2157 23.2843 9.90974 22.908 9.71799C22.4802 9.5 21.9201 9.5 20.8 9.5L7.2 9.5C6.0799 9.5 5.51984 9.5 5.09202 9.71799C4.7157 9.90973 4.40973 10.2157 4.21799 10.592C4 11.0198 4 11.5799 4 12.7Z" stroke="white" stroke-width="1.5" stroke-linecap="round" stroke-linejoin="round"/>
</g>
<defs>
<filter id="filter0_d_2060_110205" x="-1" y="-0.5" width="30" height="30" filterUnits="userSpaceOnUse" color-interpolation-filters="sRGB">
<feFlood flood-opacity="0" result="BackgroundImageFix"/>
<feColorMatrix in="SourceAlpha" type="matrix" values="0 0 0 0 0 0 0 0 0 0 0 0 0 0 0 0 0 0 127 0" result="hardAlpha"/>
<feOffset/>
<feGaussianBlur stdDeviation="1.5"/>
<feComposite in2="hardAlpha" operator="out"/>
<feColorMatrix type="matrix" values="0 0 0 0 0 0 0 0 0 0 0 0 0 0 0 0 0 0 1 0"/>
<feBlend mode="normal" in2="BackgroundImageFix" result="effect1_dropShadow_2060_110205"/>
<feBlend mode="normal" in="SourceGraphic" in2="effect1_dropShadow_2060_110205" result="shape"/>
</filter>
</defs>
</svg>
