<svg width="24" height="24" viewBox="0 0 24 24" fill="none" xmlns="http://www.w3.org/2000/svg">
<path fill-rule="evenodd" clip-rule="evenodd" d="M16.8211 1H7.17608C3.7638 1 1 3.76628 1 7.17812V16.8219C1 20.2337 3.7638 23 7.17608 23H16.8211C20.2334 23 23 20.2337 23 16.8219V7.17812C23 3.76628 20.2334 1 16.8211 1ZM15.0031 17.6515L10.2316 18.1781C9.28575 18.2829 8.58347 17.323 8.96576 16.4538L9.88892 14.3501C10.1749 13.6988 9.83228 12.9514 9.28575 12.4955C8.54949 11.8839 8.03977 10.9949 7.9265 9.96705C7.6943 7.85483 9.21496 5.95779 11.3246 5.72561C13.4343 5.49344 15.3344 7.0139 15.5666 9.12329C15.6827 10.1737 15.3627 11.1704 14.7539 11.9349C14.3065 12.5012 14.1224 13.3223 14.55 13.9027L15.8639 15.6922C16.4275 16.4595 15.9489 17.5496 15.0031 17.6515Z" fill="white"/>
</svg>
