<svg width="34" height="34" viewBox="0 0 34 34" fill="none" xmlns="http://www.w3.org/2000/svg">
<path d="M11 17H11.0133M17 17H17.0133M23 17H23.0133M17 29C23.6274 29 29 23.6274 29 17C29 10.3726 23.6274 5 17 5C10.3726 5 5 10.3726 5 17C5 18.5962 5.31165 20.1196 5.87742 21.5127C5.9857 21.7793 6.03984 21.9126 6.06399 22.0204C6.08762 22.1258 6.09626 22.2038 6.09628 22.3118C6.09629 22.4223 6.07624 22.5426 6.03614 22.7831L5.2455 27.527C5.16271 28.0238 5.12131 28.2721 5.19835 28.4518C5.26577 28.609 5.39104 28.7342 5.54825 28.8017C5.72786 28.8787 5.97624 28.8373 6.47301 28.7545L11.2169 27.9639C11.4574 27.9238 11.5777 27.9037 11.6882 27.9037C11.7962 27.9037 11.8742 27.9124 11.9796 27.936C12.0874 27.9602 12.2207 28.0143 12.4873 28.1226C13.8804 28.6884 15.4038 29 17 29ZM11.6667 17C11.6667 17.3682 11.3682 17.6667 11 17.6667C10.6318 17.6667 10.3333 17.3682 10.3333 17C10.3333 16.6318 10.6318 16.3333 11 16.3333C11.3682 16.3333 11.6667 16.6318 11.6667 17ZM17.6667 17C17.6667 17.3682 17.3682 17.6667 17 17.6667C16.6318 17.6667 16.3333 17.3682 16.3333 17C16.3333 16.6318 16.6318 16.3333 17 16.3333C17.3682 16.3333 17.6667 16.6318 17.6667 17ZM23.6667 17C23.6667 17.3682 23.3682 17.6667 23 17.6667C22.6318 17.6667 22.3333 17.3682 22.3333 17C22.3333 16.6318 22.6318 16.3333 23 16.3333C23.3682 16.3333 23.6667 16.6318 23.6667 17Z" stroke="#0C111D" stroke-width="2" stroke-linecap="round" stroke-linejoin="round"/>
</svg>
