<svg width="16" height="16" viewBox="0 0 16 16" fill="none" xmlns="http://www.w3.org/2000/svg">
<g clip-path="url(#clip0_734_43902)">
<path d="M3.33408 9.33331H12.0912C12.7664 9.33331 13.1041 9.33331 13.3728 9.20743C13.6096 9.09653 13.8085 8.91848 13.9449 8.69542C14.0997 8.4422 14.1369 8.10665 14.2115 7.43557L14.6015 3.92554C14.6243 3.72057 14.6357 3.61808 14.6027 3.53875C14.5738 3.46908 14.522 3.41129 14.456 3.37483C14.3808 3.33331 14.2777 3.33331 14.0714 3.33331H3.00074M1.33398 1.33331H2.16628C2.34269 1.33331 2.4309 1.33331 2.49991 1.36686C2.56066 1.3964 2.61101 1.4437 2.64428 1.50249C2.68206 1.56927 2.68757 1.65731 2.69857 1.83338L3.30273 11.4999C3.31373 11.676 3.31924 11.764 3.35703 11.8308C3.39029 11.8896 3.44064 11.9369 3.50139 11.9664C3.5704 12 3.65861 12 3.83503 12H12.6673M5.00065 14.3333H5.00732M11.0007 14.3333H11.0073M5.33398 14.3333C5.33398 14.5174 5.18475 14.6666 5.00065 14.6666C4.81656 14.6666 4.66732 14.5174 4.66732 14.3333C4.66732 14.1492 4.81656 14 5.00065 14C5.18475 14 5.33398 14.1492 5.33398 14.3333ZM11.334 14.3333C11.334 14.5174 11.1847 14.6666 11.0007 14.6666C10.8166 14.6666 10.6673 14.5174 10.6673 14.3333C10.6673 14.1492 10.8166 14 11.0007 14C11.1847 14 11.334 14.1492 11.334 14.3333Z" stroke="white" stroke-linecap="round" stroke-linejoin="round"/>
</g>
<defs>
<clipPath id="clip0_734_43902">
<rect width="16" height="16" fill="white"/>
</clipPath>
</defs>
</svg>
