<svg width="6" height="30" viewBox="0 0 6 30" fill="none" xmlns="http://www.w3.org/2000/svg"
    class="sm:w-8 w-6 xl:h-10 h-8 h-6 drop-shadow-icon">
    <path
        d="M3.00016 16.6667C3.92064 16.6667 4.66683 15.9206 4.66683 15.0001C4.66683 14.0796 3.92064 13.3334 3.00016 13.3334C2.07969 13.3334 1.3335 14.0796 1.3335 15.0001C1.3335 15.9206 2.07969 16.6667 3.00016 16.6667Z"
        stroke="white" stroke-width="2" stroke-linecap="round" stroke-linejoin="round" />
    <path
        d="M3.00016 5.00008C3.92064 5.00008 4.66683 4.25389 4.66683 3.33341C4.66683 2.41294 3.92064 1.66675 3.00016 1.66675C2.07969 1.66675 1.3335 2.41294 1.3335 3.33341C1.3335 4.25389 2.07969 5.00008 3.00016 5.00008Z"
        stroke="white" stroke-width="2" stroke-linecap="round" stroke-linejoin="round" />
    <path
        d="M3.00016 28.3334C3.92064 28.3334 4.66683 27.5872 4.66683 26.6667C4.66683 25.7463 3.92064 25.0001 3.00016 25.0001C2.07969 25.0001 1.3335 25.7463 1.3335 26.6667C1.3335 27.5872 2.07969 28.3334 3.00016 28.3334Z"
        stroke="white" stroke-width="2" stroke-linecap="round" stroke-linejoin="round" />
</svg>