<svg width="10" height="10" viewBox="0 0 10 10" fill="none" xmlns="http://www.w3.org/2000/svg">
<g clip-path="url(#clip0_550_1445)">
<path d="M7.72237 1.77129C7.81734 2.00098 7.99965 2.18356 8.2292 2.27888L9.03413 2.6123C9.26384 2.70745 9.44635 2.88995 9.5415 3.11967C9.63665 3.34938 9.63665 3.60748 9.5415 3.8372L9.20833 4.64155C9.11313 4.87137 9.113 5.12973 9.20863 5.35944L9.54122 6.16355C9.58839 6.27732 9.61268 6.39928 9.6127 6.52244C9.61272 6.64561 9.58847 6.76757 9.54134 6.88136C9.4942 6.99515 9.42511 7.09854 9.33801 7.18561C9.2509 7.27269 9.14749 7.34175 9.03369 7.38885L8.22934 7.72202C7.99964 7.817 7.81706 7.9993 7.72174 8.22885L7.38833 9.03378C7.29318 9.2635 7.11067 9.446 6.88096 9.54115C6.65124 9.6363 6.39314 9.6363 6.16343 9.54115L5.35907 9.20798C5.12935 9.11306 4.87134 9.11326 4.64177 9.20852L3.83684 9.54145C3.60725 9.63638 3.34937 9.6363 3.11984 9.54123C2.89032 9.44616 2.70791 9.26386 2.6127 9.0344L2.27918 8.22923C2.18421 7.99953 2.0019 7.81695 1.77235 7.72163L0.967421 7.38822C0.737807 7.29311 0.555355 7.11072 0.460169 6.88114C0.364983 6.65156 0.364854 6.39357 0.45981 6.1639L0.792984 5.35954C0.8879 5.12982 0.887707 4.87181 0.792445 4.64223L0.459749 3.83673C0.41258 3.72295 0.388291 3.601 0.388272 3.47783C0.388252 3.35467 0.412501 3.23271 0.459634 3.11892C0.506767 3.00513 0.57586 2.90174 0.662965 2.81466C0.75007 2.72759 0.853479 2.65853 0.967283 2.61143L1.77164 2.27826C2.00113 2.18337 2.1836 2.00129 2.27899 1.772L2.6124 0.967073C2.70755 0.737359 2.89006 0.554853 3.11978 0.459702C3.34949 0.364551 3.60759 0.364551 3.83731 0.459702L4.64166 0.792876C4.87138 0.887792 5.12939 0.887598 5.35897 0.792337L6.16424 0.460219C6.39392 0.365121 6.65197 0.365141 6.88164 0.460273C7.11131 0.555405 7.29379 0.737859 7.38895 0.967513L7.72247 1.77268L7.72237 1.77129Z" fill="#0788F5"/>
<path fill-rule="evenodd" clip-rule="evenodd" d="M6.95829 3.68963C7.02509 3.5847 7.04747 3.45753 7.02051 3.3361C6.99356 3.21467 6.91946 3.10893 6.81454 3.04213C6.70961 2.97532 6.58245 2.95294 6.46102 2.9799C6.33959 3.00686 6.23384 3.08095 6.16704 3.18588L4.33141 6.07025L3.49141 5.02025C3.41375 4.92312 3.30069 4.86081 3.17709 4.84704C3.05349 4.83326 2.92949 4.86915 2.83235 4.94681C2.73522 5.02447 2.67291 5.13754 2.65914 5.26113C2.64536 5.38473 2.68125 5.50874 2.75891 5.60588L4.00891 7.16838C4.0555 7.22668 4.11533 7.27302 4.18344 7.30354C4.25154 7.33406 4.32595 7.34787 4.40047 7.34384C4.47499 7.3398 4.54747 7.31803 4.61188 7.28034C4.67629 7.24265 4.73077 7.19012 4.77079 7.12713L6.95829 3.68963Z" fill="white"/>
</g>
<defs>
<clipPath id="clip0_550_1445">
<rect width="10" height="10" fill="white"/>
</clipPath>
</defs>
</svg>
