<svg width="30" height="29" viewBox="0 0 30 29" fill="none" xmlns="http://www.w3.org/2000/svg">
<path d="M5.66699 5.16699C3.45785 5.16699 1.66699 6.95785 1.66699 9.16699V19.8337C1.66699 22.0428 3.45785 23.8337 5.66699 23.8337H17.667C19.4705 23.8337 20.9953 22.64 21.4944 20.9996M21.667 14.5003L26.5127 9.65457C27.0839 9.0834 27.3695 8.79782 27.6147 8.77852C27.8274 8.76178 28.0353 8.8479 28.1739 9.01017C28.3337 9.19719 28.3337 9.60107 28.3337 10.4088V18.5918C28.3337 19.3996 28.3337 19.8035 28.1739 19.9905C28.0353 20.1528 27.8274 20.2389 27.6147 20.2221C27.3695 20.2028 27.0839 19.9172 26.5127 19.3461L21.667 14.5003ZM21.667 14.5003V11.567C21.667 9.32678 21.667 8.20668 21.231 7.35103C20.8475 6.59838 20.2356 5.98646 19.483 5.60297C18.6273 5.16699 17.5072 5.16699 15.267 5.16699H11.667M1.66699 1.16699L28.3337 27.8337" stroke="white" stroke-width="2" stroke-linecap="round" stroke-linejoin="round"/>
</svg>
