<svg width="22" height="22" viewBox="0 0 22 22" fill="none" xmlns="http://www.w3.org/2000/svg">
<path d="M13.7502 8.61683V4.5835C13.7502 3.06471 12.5189 1.8335 11.0002 1.8335C9.92068 1.8335 8.98647 2.45547 8.53635 3.3606M11.0002 17.4168V20.1668M11.0002 17.4168C7.45634 17.4168 4.5835 14.544 4.5835 11.0002V9.16683M11.0002 17.4168C14.544 17.4168 17.4168 14.544 17.4168 11.0002V9.16683M7.3335 20.1668H14.6668M1.8335 1.8335L20.1668 20.1668M11.0002 13.7502C9.48138 13.7502 8.25016 12.5189 8.25016 11.0002V8.25016L12.9459 12.9435C12.4481 13.4419 11.7602 13.7502 11.0002 13.7502Z" stroke="white" stroke-width="1.41176" stroke-linecap="round" stroke-linejoin="round"/>
</svg>
