<svg width="30" height="30" viewBox="0 0 30 30" fill="none" xmlns="http://www.w3.org/2000/svg">
<path d="M19 11.5332V5.6665C19 3.45737 17.2091 1.6665 15 1.6665C13.4298 1.6665 12.071 2.5712 11.4162 3.88775M15 24.3332V28.3332M15 24.3332C9.8453 24.3332 5.66663 20.1545 5.66663 14.9998V12.3332M15 24.3332C20.1546 24.3332 24.3333 20.1545 24.3333 14.9998V12.3332M9.66663 28.3332H20.3333M1.66663 1.6665L28.3333 28.3332M15 18.9998C12.7908 18.9998 11 17.209 11 14.9998V10.9998L17.8301 17.8266C17.1061 18.5514 16.1054 18.9998 15 18.9998Z" stroke="white" stroke-width="2" stroke-linecap="round" stroke-linejoin="round"/>
</svg>
