<svg width="20" height="20" viewBox="0 0 20 20" fill="none" xmlns="http://www.w3.org/2000/svg">
<path d="M18.3334 7.44265C18.3334 6.9378 18.3334 6.68538 18.2336 6.56849C18.147 6.46707 18.017 6.41325 17.8841 6.42371C17.7308 6.43577 17.5523 6.61426 17.1953 6.97124L14.1667 9.99984L17.1953 13.0284C17.5523 13.3854 17.7308 13.5639 17.8841 13.576C18.017 13.5864 18.147 13.5326 18.2336 13.4312C18.3334 13.3143 18.3334 13.0619 18.3334 12.557V7.44265Z" stroke="#F9FAFB" stroke-width="1.5" stroke-linecap="round" stroke-linejoin="round"/>
<path d="M1.66675 8.1665C1.66675 6.76637 1.66675 6.06631 1.93923 5.53153C2.17892 5.06112 2.56137 4.67867 3.03177 4.43899C3.56655 4.1665 4.26662 4.1665 5.66675 4.1665H10.1667C11.5669 4.1665 12.2669 4.1665 12.8017 4.43899C13.2721 4.67867 13.6546 5.06112 13.8943 5.53153C14.1667 6.06631 14.1667 6.76637 14.1667 8.1665V11.8332C14.1667 13.2333 14.1667 13.9334 13.8943 14.4681C13.6546 14.9386 13.2721 15.321 12.8017 15.5607C12.2669 15.8332 11.5669 15.8332 10.1667 15.8332H5.66675C4.26662 15.8332 3.56655 15.8332 3.03177 15.5607C2.56137 15.321 2.17892 14.9386 1.93923 14.4681C1.66675 13.9334 1.66675 13.2333 1.66675 11.8332V8.1665Z" stroke="#F9FAFB" stroke-width="1.5" stroke-linecap="round" stroke-linejoin="round"/>
</svg>
