<svg width="20" height="20" viewBox="0 0 20 20" fill="none" xmlns="http://www.w3.org/2000/svg">
<path d="M16.4567 4.16644C17.6378 5.80831 18.3334 7.8228 18.3334 9.99978C18.3334 12.1767 17.6378 14.1912 16.4567 15.8331M13.1212 6.66644C13.7802 7.6113 14.1667 8.7604 14.1667 9.99978C14.1667 11.2391 13.7802 12.3882 13.1212 13.3331M8.02868 4.47118L5.39061 7.10925C5.24648 7.25338 5.17442 7.32544 5.09032 7.37698C5.01576 7.42267 4.93447 7.45634 4.84944 7.47675C4.75354 7.49978 4.65162 7.49978 4.4478 7.49978H3.00008C2.53337 7.49978 2.30002 7.49978 2.12176 7.5906C1.96495 7.6705 1.83747 7.79798 1.75758 7.95478C1.66675 8.13304 1.66675 8.3664 1.66675 8.83311V11.1664C1.66675 11.6332 1.66675 11.8665 1.75758 12.0448C1.83747 12.2016 1.96495 12.3291 2.12176 12.4089C2.30002 12.4998 2.53337 12.4998 3.00008 12.4998H4.4478C4.65162 12.4998 4.75354 12.4998 4.84944 12.5228C4.93447 12.5432 5.01576 12.5769 5.09032 12.6226C5.17442 12.6741 5.24648 12.7462 5.39061 12.8903L8.02868 15.5284C8.38566 15.8854 8.56415 16.0638 8.71739 16.0759C8.85036 16.0864 8.9803 16.0325 9.06692 15.9311C9.16675 15.8142 9.16675 15.5618 9.16675 15.057V4.94259C9.16675 4.43774 9.16675 4.18532 9.06692 4.06843C8.9803 3.96701 8.85036 3.91319 8.71739 3.92365C8.56415 3.93571 8.38566 4.1142 8.02868 4.47118Z" stroke="#F9FAFB" stroke-width="1.5" stroke-linecap="round" stroke-linejoin="round"/>
</svg>
